<svg xmlns="http://www.w3.org/2000/svg" width="17" height="16" fill="none" viewBox="0 0 17 16">
  <path fill="#000" d="M5.313 6.477c0-.332.239-.604.53-.604h4.782V2.325c0-.268.286-.404.452-.215l4.701 5.406c.21.238.21.62 0 .858l-4.701 5.405c-.166.19-.452.057-.452-.215v-3.547H5.844c-.292 0-.532-.272-.532-.605V6.477Zm-1.063 0v2.935c0 1.002.714 1.814 1.594 1.814h3.718v2.338c0 1.341 1.428 2.021 2.265 1.07l4.705-5.403c.624-.71.624-1.859 0-2.569l-4.705-5.406C10.994.308 9.563.98 9.563 2.326v2.338h-3.72c-.88 0-1.593.816-1.593 1.813ZM0 2.507v10.88c0 1 .714 1.813 1.594 1.813h4.383c.219 0 .398-.204.398-.453v-.303c0-.249-.18-.453-.398-.453H1.594c-.292 0-.532-.272-.532-.604V2.507c0-.333.24-.605.532-.605h4.383c.219 0 .398-.204.398-.453v-.302c0-.25-.18-.454-.398-.454H1.594C.714.693 0 1.506 0 2.507Z"/>
</svg>
